<mxfile host="app.diagrams.net" agent="Mozilla/5.0 (Windows NT 10.0; Win64; x64) AppleWebKit/537.36 (KHTML, like Gecko) Chrome/133.0.0.0 Safari/537.36" version="26.0.16">
  <diagram id="C5RBs43oDa-KdzZeNtuy" name="Page-1">
    <mxGraphModel dx="989" dy="514" grid="1" gridSize="10" guides="1" tooltips="1" connect="1" arrows="1" fold="1" page="1" pageScale="1" pageWidth="827" pageHeight="1169" math="0" shadow="0">
      <root>
        <mxCell id="WIyWlLk6GJQsqaUBKTNV-0" />
        <mxCell id="WIyWlLk6GJQsqaUBKTNV-1" parent="WIyWlLk6GJQsqaUBKTNV-0" />
        <mxCell id="KC0JBzl_3fo8Be8MP1vC-3" value="Client" style="rounded=0;whiteSpace=wrap;html=1;" vertex="1" parent="WIyWlLk6GJQsqaUBKTNV-1">
          <mxGeometry x="400" y="290" width="120" height="30" as="geometry" />
        </mxCell>
        <mxCell id="KC0JBzl_3fo8Be8MP1vC-4" value="&lt;div&gt;&lt;i&gt;«interface»&lt;/i&gt;&lt;/div&gt;&lt;i&gt;IFilmFactory&lt;/i&gt;" style="swimlane;fontStyle=0;childLayout=stackLayout;horizontal=1;startSize=30;fillColor=none;horizontalStack=0;resizeParent=1;resizeParentMax=0;resizeLast=0;collapsible=1;marginBottom=0;whiteSpace=wrap;html=1;" vertex="1" parent="WIyWlLk6GJQsqaUBKTNV-1">
          <mxGeometry x="150" y="370" width="160" height="74" as="geometry" />
        </mxCell>
        <mxCell id="KC0JBzl_3fo8Be8MP1vC-5" value="&lt;i&gt;CreateSubtitle() :&amp;nbsp;&lt;/i&gt;&lt;span style=&quot;font-style: italic; text-align: center;&quot;&gt;ISubtitle&lt;/span&gt;&lt;i&gt;&lt;br&gt;&lt;/i&gt;" style="text;strokeColor=none;fillColor=none;align=left;verticalAlign=top;spacingLeft=4;spacingRight=4;overflow=hidden;rotatable=0;points=[[0,0.5],[1,0.5]];portConstraint=eastwest;whiteSpace=wrap;html=1;" vertex="1" parent="KC0JBzl_3fo8Be8MP1vC-4">
          <mxGeometry y="30" width="160" height="18" as="geometry" />
        </mxCell>
        <mxCell id="KC0JBzl_3fo8Be8MP1vC-6" value="CreateAudio() :&amp;nbsp;&lt;span style=&quot;text-align: center;&quot;&gt;IAudio&lt;/span&gt;" style="text;strokeColor=none;fillColor=none;align=left;verticalAlign=top;spacingLeft=4;spacingRight=4;overflow=hidden;rotatable=0;points=[[0,0.5],[1,0.5]];portConstraint=eastwest;whiteSpace=wrap;html=1;fontStyle=2" vertex="1" parent="KC0JBzl_3fo8Be8MP1vC-4">
          <mxGeometry y="48" width="160" height="26" as="geometry" />
        </mxCell>
        <mxCell id="KC0JBzl_3fo8Be8MP1vC-8" value="RussianFactory" style="swimlane;fontStyle=0;childLayout=stackLayout;horizontal=1;startSize=26;fillColor=none;horizontalStack=0;resizeParent=1;resizeParentMax=0;resizeLast=0;collapsible=1;marginBottom=0;whiteSpace=wrap;html=1;" vertex="1" collapsed="1" parent="WIyWlLk6GJQsqaUBKTNV-1">
          <mxGeometry x="160" y="612" width="120" height="30" as="geometry">
            <mxRectangle x="150" y="627" width="160" height="78" as="alternateBounds" />
          </mxGeometry>
        </mxCell>
        <mxCell id="KC0JBzl_3fo8Be8MP1vC-9" value="&lt;i&gt;CreateSubtitle() :&amp;nbsp;&lt;/i&gt;&lt;span style=&quot;font-style: italic; text-align: center;&quot;&gt;ISubtitle&lt;/span&gt;" style="text;strokeColor=none;fillColor=none;align=left;verticalAlign=top;spacingLeft=4;spacingRight=4;overflow=hidden;rotatable=0;points=[[0,0.5],[1,0.5]];portConstraint=eastwest;whiteSpace=wrap;html=1;" vertex="1" parent="KC0JBzl_3fo8Be8MP1vC-8">
          <mxGeometry y="26" width="160" height="26" as="geometry" />
        </mxCell>
        <mxCell id="KC0JBzl_3fo8Be8MP1vC-10" value="&lt;span style=&quot;font-style: italic;&quot;&gt;CreateAudio() :&amp;nbsp;&lt;/span&gt;&lt;span style=&quot;font-style: italic; text-align: center;&quot;&gt;IAudio&lt;/span&gt;" style="text;strokeColor=none;fillColor=none;align=left;verticalAlign=top;spacingLeft=4;spacingRight=4;overflow=hidden;rotatable=0;points=[[0,0.5],[1,0.5]];portConstraint=eastwest;whiteSpace=wrap;html=1;fontStyle=0" vertex="1" parent="KC0JBzl_3fo8Be8MP1vC-8">
          <mxGeometry y="52" width="160" height="26" as="geometry" />
        </mxCell>
        <mxCell id="KC0JBzl_3fo8Be8MP1vC-11" value="EnglishFactory" style="swimlane;fontStyle=0;childLayout=stackLayout;horizontal=1;startSize=26;fillColor=none;horizontalStack=0;resizeParent=1;resizeParentMax=0;resizeLast=0;collapsible=1;marginBottom=0;whiteSpace=wrap;html=1;" vertex="1" collapsed="1" parent="WIyWlLk6GJQsqaUBKTNV-1">
          <mxGeometry x="262" y="500" width="120" height="30" as="geometry">
            <mxRectangle x="262" y="500" width="160" height="78" as="alternateBounds" />
          </mxGeometry>
        </mxCell>
        <mxCell id="KC0JBzl_3fo8Be8MP1vC-12" value="&lt;i&gt;CreateSubtitle() :&amp;nbsp;&lt;/i&gt;&lt;span style=&quot;font-style: italic; text-align: center;&quot;&gt;ISubtitle&lt;/span&gt;" style="text;strokeColor=none;fillColor=none;align=left;verticalAlign=top;spacingLeft=4;spacingRight=4;overflow=hidden;rotatable=0;points=[[0,0.5],[1,0.5]];portConstraint=eastwest;whiteSpace=wrap;html=1;" vertex="1" parent="KC0JBzl_3fo8Be8MP1vC-11">
          <mxGeometry y="26" width="160" height="26" as="geometry" />
        </mxCell>
        <mxCell id="KC0JBzl_3fo8Be8MP1vC-13" value="&lt;span style=&quot;font-style: italic;&quot;&gt;CreateAudio() :&amp;nbsp;&lt;/span&gt;&lt;span style=&quot;font-style: italic; text-align: center;&quot;&gt;IAudio&lt;/span&gt;" style="text;strokeColor=none;fillColor=none;align=left;verticalAlign=top;spacingLeft=4;spacingRight=4;overflow=hidden;rotatable=0;points=[[0,0.5],[1,0.5]];portConstraint=eastwest;whiteSpace=wrap;html=1;fontStyle=0" vertex="1" parent="KC0JBzl_3fo8Be8MP1vC-11">
          <mxGeometry y="52" width="160" height="26" as="geometry" />
        </mxCell>
        <mxCell id="KC0JBzl_3fo8Be8MP1vC-16" value="" style="group" connectable="0" vertex="1" parent="WIyWlLk6GJQsqaUBKTNV-1">
          <mxGeometry x="670" y="399" width="271" height="323" as="geometry" />
        </mxCell>
        <mxCell id="KC0JBzl_3fo8Be8MP1vC-21" value="EnglishSubtitle" style="swimlane;fontStyle=0;childLayout=stackLayout;horizontal=1;startSize=26;fillColor=none;horizontalStack=0;resizeParent=1;resizeParentMax=0;resizeLast=0;collapsible=1;marginBottom=0;whiteSpace=wrap;html=1;" vertex="1" collapsed="1" parent="KC0JBzl_3fo8Be8MP1vC-16">
          <mxGeometry x="95.5" y="113" width="100" height="30" as="geometry">
            <mxRectangle x="95.5" y="113" width="140" height="80" as="alternateBounds" />
          </mxGeometry>
        </mxCell>
        <mxCell id="KC0JBzl_3fo8Be8MP1vC-22" value="&lt;span style=&quot;font-style: italic;&quot;&gt;ApplySubtitle(moviePath: string, mediaoPlayer: Mediaplayer)&lt;/span&gt;" style="text;strokeColor=none;fillColor=none;align=left;verticalAlign=top;spacingLeft=4;spacingRight=4;overflow=hidden;rotatable=0;points=[[0,0.5],[1,0.5]];portConstraint=eastwest;whiteSpace=wrap;html=1;" vertex="1" parent="KC0JBzl_3fo8Be8MP1vC-21">
          <mxGeometry y="26" width="140" height="54" as="geometry" />
        </mxCell>
        <mxCell id="KC0JBzl_3fo8Be8MP1vC-23" value="RussianSubtitle" style="swimlane;fontStyle=0;childLayout=stackLayout;horizontal=1;startSize=26;fillColor=none;horizontalStack=0;resizeParent=1;resizeParentMax=0;resizeLast=0;collapsible=1;marginBottom=0;whiteSpace=wrap;html=1;" vertex="1" collapsed="1" parent="KC0JBzl_3fo8Be8MP1vC-16">
          <mxGeometry x="20" y="243" width="110" height="30" as="geometry">
            <mxRectangle x="20" y="243" width="140" height="80" as="alternateBounds" />
          </mxGeometry>
        </mxCell>
        <mxCell id="KC0JBzl_3fo8Be8MP1vC-24" value="&lt;span style=&quot;font-style: italic;&quot;&gt;ApplySubtitle(moviePath: string, mediaoPlayer: Mediaplayer)&lt;/span&gt;" style="text;strokeColor=none;fillColor=none;align=left;verticalAlign=top;spacingLeft=4;spacingRight=4;overflow=hidden;rotatable=0;points=[[0,0.5],[1,0.5]];portConstraint=eastwest;whiteSpace=wrap;html=1;" vertex="1" parent="KC0JBzl_3fo8Be8MP1vC-23">
          <mxGeometry y="26" width="140" height="54" as="geometry" />
        </mxCell>
        <mxCell id="KC0JBzl_3fo8Be8MP1vC-28" value="" style="group" connectable="0" vertex="1" parent="WIyWlLk6GJQsqaUBKTNV-1">
          <mxGeometry x="380" y="410" width="305.5" height="240" as="geometry" />
        </mxCell>
        <mxCell id="KC0JBzl_3fo8Be8MP1vC-42" value="EnglishAudio" style="swimlane;fontStyle=0;childLayout=stackLayout;horizontal=1;startSize=26;fillColor=none;horizontalStack=0;resizeParent=1;resizeParentMax=0;resizeLast=0;collapsible=1;marginBottom=0;whiteSpace=wrap;html=1;" vertex="1" collapsed="1" parent="KC0JBzl_3fo8Be8MP1vC-28">
          <mxGeometry x="130" y="148" width="120" height="30" as="geometry">
            <mxRectangle x="130" y="148" width="140" height="80" as="alternateBounds" />
          </mxGeometry>
        </mxCell>
        <mxCell id="KC0JBzl_3fo8Be8MP1vC-43" value="&lt;span style=&quot;font-style: italic;&quot;&gt;ApplyAudio(moviePath: string, mediaPlayer: MediaPlayer)&lt;/span&gt;" style="text;strokeColor=none;fillColor=none;align=left;verticalAlign=top;spacingLeft=4;spacingRight=4;overflow=hidden;rotatable=0;points=[[0,0.5],[1,0.5]];portConstraint=eastwest;whiteSpace=wrap;html=1;" vertex="1" parent="KC0JBzl_3fo8Be8MP1vC-42">
          <mxGeometry y="26" width="140" height="54" as="geometry" />
        </mxCell>
        <mxCell id="KC0JBzl_3fo8Be8MP1vC-36" value="RussianAudio" style="swimlane;fontStyle=0;childLayout=stackLayout;horizontal=1;startSize=26;fillColor=none;horizontalStack=0;resizeParent=1;resizeParentMax=0;resizeLast=0;collapsible=1;marginBottom=0;whiteSpace=wrap;html=1;" vertex="1" collapsed="1" parent="WIyWlLk6GJQsqaUBKTNV-1">
          <mxGeometry x="450" y="692" width="120" height="30" as="geometry">
            <mxRectangle x="450" y="692" width="140" height="80" as="alternateBounds" />
          </mxGeometry>
        </mxCell>
        <mxCell id="KC0JBzl_3fo8Be8MP1vC-37" value="&lt;span style=&quot;font-style: italic;&quot;&gt;ApplyAudio(moviePath: string, mediaPlayer: MediaPlayer)&lt;/span&gt;" style="text;strokeColor=none;fillColor=none;align=left;verticalAlign=top;spacingLeft=4;spacingRight=4;overflow=hidden;rotatable=0;points=[[0,0.5],[1,0.5]];portConstraint=eastwest;whiteSpace=wrap;html=1;" vertex="1" parent="KC0JBzl_3fo8Be8MP1vC-36">
          <mxGeometry y="26" width="140" height="54" as="geometry" />
        </mxCell>
        <mxCell id="KC0JBzl_3fo8Be8MP1vC-44" value="" style="endArrow=open;endSize=12;dashed=1;html=1;rounded=0;exitX=1;exitY=0.5;exitDx=0;exitDy=0;entryX=0;entryY=0.25;entryDx=0;entryDy=0;" edge="1" parent="WIyWlLk6GJQsqaUBKTNV-1" source="KC0JBzl_3fo8Be8MP1vC-8" target="KC0JBzl_3fo8Be8MP1vC-23">
          <mxGeometry width="160" relative="1" as="geometry">
            <mxPoint x="334" y="751.31" as="sourcePoint" />
            <mxPoint x="494" y="751.31" as="targetPoint" />
          </mxGeometry>
        </mxCell>
        <mxCell id="KC0JBzl_3fo8Be8MP1vC-45" value="" style="endArrow=open;endSize=12;dashed=1;html=1;rounded=0;exitX=1;exitY=0.5;exitDx=0;exitDy=0;entryX=0;entryY=0.25;entryDx=0;entryDy=0;" edge="1" parent="WIyWlLk6GJQsqaUBKTNV-1" source="KC0JBzl_3fo8Be8MP1vC-10" target="KC0JBzl_3fo8Be8MP1vC-36">
          <mxGeometry width="160" relative="1" as="geometry">
            <mxPoint x="370" y="760" as="sourcePoint" />
            <mxPoint x="504" y="761.31" as="targetPoint" />
          </mxGeometry>
        </mxCell>
        <mxCell id="KC0JBzl_3fo8Be8MP1vC-46" value="" style="endArrow=open;endSize=12;dashed=1;html=1;rounded=0;exitX=1;exitY=0.5;exitDx=0;exitDy=0;entryX=0;entryY=0.25;entryDx=0;entryDy=0;" edge="1" parent="WIyWlLk6GJQsqaUBKTNV-1" source="KC0JBzl_3fo8Be8MP1vC-12" target="KC0JBzl_3fo8Be8MP1vC-21">
          <mxGeometry width="160" relative="1" as="geometry">
            <mxPoint x="325" y="709" as="sourcePoint" />
            <mxPoint x="770" y="663" as="targetPoint" />
          </mxGeometry>
        </mxCell>
        <mxCell id="KC0JBzl_3fo8Be8MP1vC-47" value="" style="endArrow=open;endSize=12;dashed=1;html=1;rounded=0;exitX=1;exitY=0.5;exitDx=0;exitDy=0;entryX=0.005;entryY=0.379;entryDx=0;entryDy=0;entryPerimeter=0;" edge="1" parent="WIyWlLk6GJQsqaUBKTNV-1" source="KC0JBzl_3fo8Be8MP1vC-13" target="KC0JBzl_3fo8Be8MP1vC-42">
          <mxGeometry width="160" relative="1" as="geometry">
            <mxPoint x="410" y="569" as="sourcePoint" />
            <mxPoint x="776" y="533" as="targetPoint" />
          </mxGeometry>
        </mxCell>
        <mxCell id="KC0JBzl_3fo8Be8MP1vC-48" value="" style="endArrow=block;dashed=1;endFill=0;endSize=12;html=1;rounded=0;entryX=0.85;entryY=1.077;entryDx=0;entryDy=0;entryPerimeter=0;exitX=0.217;exitY=0.006;exitDx=0;exitDy=0;exitPerimeter=0;" edge="1" parent="WIyWlLk6GJQsqaUBKTNV-1" source="KC0JBzl_3fo8Be8MP1vC-11" target="KC0JBzl_3fo8Be8MP1vC-6">
          <mxGeometry width="160" relative="1" as="geometry">
            <mxPoint x="10" y="538.66" as="sourcePoint" />
            <mxPoint x="170" y="538.66" as="targetPoint" />
          </mxGeometry>
        </mxCell>
        <mxCell id="KC0JBzl_3fo8Be8MP1vC-49" value="" style="endArrow=block;dashed=1;endFill=0;endSize=12;html=1;rounded=0;entryX=0.178;entryY=1.13;entryDx=0;entryDy=0;entryPerimeter=0;exitX=0.179;exitY=0.023;exitDx=0;exitDy=0;exitPerimeter=0;" edge="1" parent="WIyWlLk6GJQsqaUBKTNV-1" source="KC0JBzl_3fo8Be8MP1vC-8" target="KC0JBzl_3fo8Be8MP1vC-6">
          <mxGeometry width="160" relative="1" as="geometry">
            <mxPoint x="178" y="620" as="sourcePoint" />
            <mxPoint x="180" y="548.66" as="targetPoint" />
          </mxGeometry>
        </mxCell>
        <mxCell id="KC0JBzl_3fo8Be8MP1vC-50" value="" style="endArrow=block;dashed=1;endFill=0;endSize=12;html=1;rounded=0;exitX=0.047;exitY=-0.023;exitDx=0;exitDy=0;exitPerimeter=0;entryX=0.537;entryY=0.956;entryDx=0;entryDy=0;entryPerimeter=0;" edge="1" parent="WIyWlLk6GJQsqaUBKTNV-1" source="KC0JBzl_3fo8Be8MP1vC-36" target="KC0JBzl_3fo8Be8MP1vC-35">
          <mxGeometry width="160" relative="1" as="geometry">
            <mxPoint x="189" y="639" as="sourcePoint" />
            <mxPoint x="457" y="440" as="targetPoint" />
          </mxGeometry>
        </mxCell>
        <mxCell id="KC0JBzl_3fo8Be8MP1vC-53" value="" style="endArrow=block;dashed=1;endFill=0;endSize=12;html=1;rounded=0;exitX=0.184;exitY=-0.044;exitDx=0;exitDy=0;exitPerimeter=0;entryX=0.258;entryY=1;entryDx=0;entryDy=0;entryPerimeter=0;" edge="1" parent="WIyWlLk6GJQsqaUBKTNV-1" source="KC0JBzl_3fo8Be8MP1vC-23" target="KC0JBzl_3fo8Be8MP1vC-18">
          <mxGeometry width="160" relative="1" as="geometry">
            <mxPoint x="784" y="517" as="sourcePoint" />
            <mxPoint x="721.3800000000001" y="432.2080000000001" as="targetPoint" />
          </mxGeometry>
        </mxCell>
        <mxCell id="KC0JBzl_3fo8Be8MP1vC-33" value="&lt;div&gt;&lt;i&gt;«interface»&lt;/i&gt;&lt;/div&gt;IAudio" style="swimlane;fontStyle=2;childLayout=stackLayout;horizontal=1;startSize=27;fillColor=none;horizontalStack=0;resizeParent=1;resizeParentMax=0;resizeLast=0;collapsible=1;marginBottom=0;whiteSpace=wrap;html=1;" vertex="1" collapsed="1" parent="WIyWlLk6GJQsqaUBKTNV-1">
          <mxGeometry x="382" y="370" width="138" height="30" as="geometry">
            <mxRectangle x="382" y="370" width="140" height="80" as="alternateBounds" />
          </mxGeometry>
        </mxCell>
        <mxCell id="KC0JBzl_3fo8Be8MP1vC-35" value="&lt;div&gt;ApplyAudio(moviePath: string, mediaPlayer: MediaPlayer)&lt;/div&gt;" style="text;strokeColor=none;fillColor=none;align=left;verticalAlign=top;spacingLeft=4;spacingRight=4;overflow=hidden;rotatable=0;points=[[0,0.5],[1,0.5]];portConstraint=eastwest;whiteSpace=wrap;html=1;fontStyle=2" vertex="1" parent="KC0JBzl_3fo8Be8MP1vC-33">
          <mxGeometry y="27" width="140" height="53" as="geometry" />
        </mxCell>
        <mxCell id="KC0JBzl_3fo8Be8MP1vC-51" value="" style="endArrow=block;dashed=1;endFill=0;endSize=12;html=1;rounded=0;entryX=0.911;entryY=0.951;entryDx=0;entryDy=0;entryPerimeter=0;exitX=0.066;exitY=-0.038;exitDx=0;exitDy=0;exitPerimeter=0;" edge="1" parent="WIyWlLk6GJQsqaUBKTNV-1" source="KC0JBzl_3fo8Be8MP1vC-42" target="KC0JBzl_3fo8Be8MP1vC-35">
          <mxGeometry width="160" relative="1" as="geometry">
            <mxPoint x="467" y="711" as="sourcePoint" />
            <mxPoint x="467" y="503" as="targetPoint" />
          </mxGeometry>
        </mxCell>
        <mxCell id="KC0JBzl_3fo8Be8MP1vC-17" value="&lt;i&gt;«interface»&lt;/i&gt;&lt;div&gt;ISubtitle&lt;/div&gt;" style="swimlane;fontStyle=2;childLayout=stackLayout;horizontal=1;startSize=30;fillColor=none;horizontalStack=0;resizeParent=1;resizeParentMax=0;resizeLast=0;collapsible=1;marginBottom=0;whiteSpace=wrap;html=1;" vertex="1" collapsed="1" parent="WIyWlLk6GJQsqaUBKTNV-1">
          <mxGeometry x="670" y="354" width="140" height="30" as="geometry">
            <mxRectangle x="670" y="354" width="140" height="80" as="alternateBounds" />
          </mxGeometry>
        </mxCell>
        <mxCell id="KC0JBzl_3fo8Be8MP1vC-18" value="ApplySubtitle(moviePath: string, mediaoPlayer: Mediaplayer)" style="text;strokeColor=none;fillColor=none;align=left;verticalAlign=top;spacingLeft=4;spacingRight=4;overflow=hidden;rotatable=0;points=[[0,0.5],[1,0.5]];portConstraint=eastwest;whiteSpace=wrap;html=1;fontStyle=2" vertex="1" parent="KC0JBzl_3fo8Be8MP1vC-17">
          <mxGeometry y="30" width="140" height="50" as="geometry" />
        </mxCell>
        <mxCell id="KC0JBzl_3fo8Be8MP1vC-52" value="" style="endArrow=block;dashed=1;endFill=0;endSize=12;html=1;rounded=0;entryX=0.75;entryY=1;entryDx=0;entryDy=0;exitX=0.053;exitY=-0.05;exitDx=0;exitDy=0;exitPerimeter=0;" edge="1" parent="WIyWlLk6GJQsqaUBKTNV-1" source="KC0JBzl_3fo8Be8MP1vC-21" target="KC0JBzl_3fo8Be8MP1vC-17">
          <mxGeometry width="160" relative="1" as="geometry">
            <mxPoint x="529" y="556" as="sourcePoint" />
            <mxPoint x="518" y="488" as="targetPoint" />
          </mxGeometry>
        </mxCell>
        <mxCell id="KC0JBzl_3fo8Be8MP1vC-54" value="" style="endArrow=open;endSize=12;dashed=1;html=1;rounded=0;exitX=0;exitY=0.25;exitDx=0;exitDy=0;entryX=0.386;entryY=-0.017;entryDx=0;entryDy=0;entryPerimeter=0;" edge="1" parent="WIyWlLk6GJQsqaUBKTNV-1" source="KC0JBzl_3fo8Be8MP1vC-3" target="KC0JBzl_3fo8Be8MP1vC-4">
          <mxGeometry width="160" relative="1" as="geometry">
            <mxPoint x="392" y="525" as="sourcePoint" />
            <mxPoint x="521" y="579" as="targetPoint" />
          </mxGeometry>
        </mxCell>
        <mxCell id="KC0JBzl_3fo8Be8MP1vC-55" value="" style="endArrow=open;endSize=12;dashed=1;html=1;rounded=0;exitX=0.4;exitY=1.039;exitDx=0;exitDy=0;entryX=0.445;entryY=0.097;entryDx=0;entryDy=0;entryPerimeter=0;exitPerimeter=0;" edge="1" parent="WIyWlLk6GJQsqaUBKTNV-1" source="KC0JBzl_3fo8Be8MP1vC-3" target="KC0JBzl_3fo8Be8MP1vC-33">
          <mxGeometry width="160" relative="1" as="geometry">
            <mxPoint x="402" y="308" as="sourcePoint" />
            <mxPoint x="222" y="379" as="targetPoint" />
          </mxGeometry>
        </mxCell>
        <mxCell id="KC0JBzl_3fo8Be8MP1vC-56" value="" style="endArrow=open;endSize=12;dashed=1;html=1;rounded=0;exitX=1;exitY=0.5;exitDx=0;exitDy=0;entryX=0.25;entryY=0;entryDx=0;entryDy=0;" edge="1" parent="WIyWlLk6GJQsqaUBKTNV-1" source="KC0JBzl_3fo8Be8MP1vC-3" target="KC0JBzl_3fo8Be8MP1vC-17">
          <mxGeometry width="160" relative="1" as="geometry">
            <mxPoint x="450" y="331" as="sourcePoint" />
            <mxPoint x="453" y="383" as="targetPoint" />
          </mxGeometry>
        </mxCell>
      </root>
    </mxGraphModel>
  </diagram>
</mxfile>
